# AST/ASF file generated using VICON BodyLanguage
# -----------------------------------------------
:version 1.10
:name VICON
:units
  mass 1.0
  length 0.45
  angle deg
:documentation
   .ast/.asf automatically generated from VICON data using
   VICON BodyBuilder and BodyLanguage model FoxedUp or BRILLIANT.MOD
:root
   order TX TY TZ RX RY RZ
   axis XYZ
   position 0 0 0  
   orientation 0 0 0 
:bonedata
  begin
     id 1 
     name lhipjoint
     direction 0.573633 -0.743009 0.344793 
     length 2.46257 
     axis 0 0 0  XYZ
  end
  begin
     id 2 
     name lfemur
     direction 0.34202 -0.939693 0  
     length 7.3842  
     axis 0 0 20  XYZ
    dof rx ry rz
    limits (-160.0 20.0)
           (-70.0 70.0)
           (-60.0 70.0)
  end
  begin
     id 3 
     name ltibia
     direction 0.34202 -0.939693 0   
     length 7.50407   
     axis 0 0 20   XYZ
    dof rx
    limits (-10.0 170.0)
  end
  begin
     id 4 
     name lfoot
     direction 0.110749 -0.304281 0.946123   
     length 1.95925   
     axis -90 7.62852e-016 20   XYZ
    dof rx rz
    limits (-45.0 90.0)
           (-70.0 20.0)
  end
  begin
     id 5 
     name ltoes
     direction 1.53554e-011 -4.21843e-011 1   
     length 0.978318   
     axis -90 7.62852e-016 20   XYZ
    dof rx
    limits (-90.0 20.0)
  end
  begin
     id 6 
     name rhipjoint
     direction -0.488109 -0.791693 0.367385   
     length 2.31113  
     axis 0 0 0  XYZ 
  end
  begin
     id 7 
     name rfemur
     direction -0.34202 -0.939693 0   
     length 7.40965   
     axis 0 0 -20   XYZ
    dof rx ry rz
    limits (-160.0 20.0)
           (-70.0 70.0)
           (-70.0 60.0)
  end
  begin
     id 8 
     name rtibia
     direction -0.34202 -0.939693 0   
     length 7.55548   
     axis 0 0 -20   XYZ
    dof rx
    limits (-10.0 170.0)
 end
 begin
     id 9 
     name rfoot
     direction -0.127594 -0.350561 0.927808   
     length 2.07199  
     axis -90 -7.62852e-016 -20   XYZ
    dof rx rz
    limits (-45.0 90.0)
           (-20.0 70.0)
  end
  begin
     id 10 
     name rtoes
     direction -1.53542e-011 -4.21909e-011 1   
     length 1.02667   
     axis -90 -7.62852e-016 -20   XYZ
    dof rx
    limits (-90.0 20.0)
  end
  begin
     id 11 
     name lowerback
     direction -0.0103342 0.997298 -0.0727278   
     length 2.02836   
     axis 0 0 0   XYZ
    dof rx ry rz
    limits (-20.0 45.0)
           (-30.0 30.0)
           (-30.0 30.0)
  end
  begin
     id 12 
     name upperback
     direction 0.0171146 0.999786 -0.011606   
     length 2.03179   
     axis 0 0 0   XYZ
    dof rx ry rz
    limits (-20.0 45.0)
           (-30.0 30.0)
           (-30.0 30.0)
  end
  begin
     id 13 
     name thorax
     direction 0.0216927 0.999513 0.0224343   
     length 2.03882   
     axis 0 0 0   XYZ
    dof rx ry rz
    limits (-20.0 45.0)
           (-30.0 30.0)
           (-30.0 30.0)
  end
  begin
     id 14 
     name lowerneck
     direction 0.000989287 0.993907 0.110221   
     length 1.75428   
     axis 0 0 0   XYZ
    dof rx ry rz
    limits (-20.0 45.0)
           (-30.0 30.0)
           (-30.0 30.0)
  end
  begin
     id 15 
     name upperneck
     direction -0.0172474 0.994813 -0.100253   
     length 1.77058   
     axis 0 0 0   XYZ
    dof rx ry rz
    limits (-20.0 45.0)
           (-30.0 30.0)
           (-30.0 30.0)
  end
  begin
     id 16
     name head
     direction -0.00486455 0.99894 -0.0457663  
     length 1.77427  
     axis 0 0 0   XYZ
    dof rx ry rz
    limits (-20.0 45.0)
           (-30.0 30.0)
           (-30.0 30.0)
  end
  begin
     id 17 
     name lclavicle
     direction 0.927314 0.333734 -0.169441  
     length 3.97584  
     axis 0 0 0   XYZ
    dof ry rz
    limits (-20.0 10.0)
           (0.0 20.0)
  end
  begin
     id 18 
     name lhumerus
     direction 1 -4.48965e-011 -3.25313e-028   
     length 4.76468   
     axis 180 -30 -90   XYZ
    dof rx ry rz
    limits (-60.0 90.0)
           (-90.0 90.0)
           (-90.0 90.0)
  end
  begin
     id 19
     name lradius
     direction 1 -4.48969e-011 -2.8465e-028   
     length 3.52712   
     axis -180 -30 -90   XYZ
    dof rx
    limits (-10.0 170.0)
  end
  begin
     id 20
     name lwrist
     direction 1 -4.4896e-011 -7.78665e-028   
     length 1.76356   
     axis 1.91374e-015 90 90   XYZ
    dof ry
    limits (-180.0 0.0)
 end
  begin
     id 21 
     name lhand
     direction 1 -4.48959e-011 -1.55733e-027   
     length 0.859564   
     axis 9.9371e-016 90 90   XYZ
    dof rx rz
    limits (-90.0 90.0)
           (-45.0 45.0)
  end
  begin
     id 22 
     name lfingers
     direction 1 -4.48965e-011 -3.11466e-027   
     length 0.693002   
     axis 1.98742e-015 90 90   XYZ
    dof rx
    limits (0.0 90.0)
  end
  begin
     id 23
     name lthumb
     direction 0.707107 -6.34948e-011 0.707107   
     length 0.995017   
     axis -90 45 2.85299e-015   XYZ
    dof rx rz
    limits (-45.0 45.0)
           (-45.0 45.0)
  end
  begin
     id 24 
     name rclavicle
     direction -0.899388 0.348209 -0.264294   
     length 3.68366  
     axis 0 0 0   XYZ 
    dof ry rz
    limits (-10.0 20.0)
           (-20.0 0.0)
  end
  begin
     id 25 
     name rhumerus
     direction -1 -4.48965e-011 -3.01536e-027  
     length 4.90577   
     axis 180 30 90   XYZ
    dof rx ry rz
    limits (-90.0 60.0)
           (-90.0 90.0)
           (-90.0 90.0)
  end
  begin
     id 26 
     name rradius
     direction -1 -4.48966e-011 3.93291e-027   
     length 3.42692   
     axis -180 30 90   XYZ
    dof rx
    limits (-10.0 170.0)
  end
  begin
     id 27 
     name rwrist
     direction -1 -4.48969e-011 -7.78665e-028   
     length 1.71346   
     axis 1.91374e-015 -90 -90   XYZ
    dof ry
    limits (-180.0 0.0)
  end
  begin
     id 28
     name rhand
     direction -1 -4.48967e-011 -1.55733e-027   
     length 0.740957   
     axis 9.9371e-016 -90 -90   XYZ
    dof rx rz
    limits (-90.0 90.0)
           (-45.0 45.0)
  end
  begin
     id 29
     name rfingers
     direction -1 -4.48949e-011 -3.11466e-027   
     length 0.597378   
     axis 1.98742e-015 -90 -90   XYZ
    dof rx
    limits (0.0 90.0)
  end
  begin
     id 30
     name rthumb
     direction -0.707107 -6.34931e-011 0.707107   
     length 0.857719   
     axis -90 -45 -2.85299e-015   XYZ
    dof rx rz
    limits (-45.0 45.0)
           (-45.0 45.0)
  end
:hierarchy
  begin
    root lhipjoint rhipjoint lowerback
    lhipjoint lfemur
    lfemur ltibia
    ltibia lfoot
    lfoot ltoes
    rhipjoint rfemur
    rfemur rtibia
    rtibia rfoot
    rfoot rtoes
    lowerback upperback
    upperback thorax
    thorax lowerneck lclavicle rclavicle
    lowerneck upperneck
    upperneck head
    lclavicle lhumerus
    lhumerus lradius
    lradius lwrist
    lwrist lhand lthumb
    lhand lfingers
    rclavicle rhumerus
    rhumerus rradius
    rradius rwrist
    rwrist rhand rthumb
    rhand rfingers
  end

#!OML:ASF E:\I on waltz\AllaLogoMonkeySwing\Project 1\Capture day 1\Session 1\Subject1.ASF
:FULLY-SPECIFIED
:DEGREES
55
root 0.23624 17.6121 -22.2358 2.93682 -1.76259 -0.450284
lowerback 5.73797 -1.49326 -2.33629
upperback -1.26228 -2.08152 1.96604
thorax -4.37091 -0.946102 3.54664
lowerneck -7.74122 -6.71364 -9.37955
upperneck 12.8585 -8.22213 2.57453
head 5.66069 -4.2928 1.69953
rclavicle -2.00151e-014 -9.14409e-015
rhumerus -28.1942 -16.0786 -82.7454
rradius 18.2776
rwrist 11.6901
rhand -6.40912 -34.728
rfingers 7.12502
rthumb 19.439 -63.7763
lclavicle -2.00151e-014 -9.14409e-015
lhumerus -45.3041 24.937 79.0768
lradius 38.0684
lwrist -3.00693
lhand -5.64341 -12.3679
lfingers 7.12502
lthumb 20.1751 16.6044
rfemur -11.0935 -1.08724 21.7582
rtibia 31.7698
rfoot -23.0703 -6.54503
rtoes 22.3139
lfemur -9.05995 3.28165 -20.8138
ltibia 28.3394
lfoot -22.9251 2.08213
ltoes -25.317
56
root 0.238225 17.6113 -22.2386 2.94938 -1.77995 -0.478972
lowerback 5.76816 -1.48505 -2.29636
upperback -1.21964 -2.06808 1.96599
thorax -4.34594 -0.941488 3.52288
lowerneck -8.16332 -6.35579 -9.21316
upperneck 13.4983 -7.71923 2.5334
head 5.89444 -4.04836 1.68366
rclavicle 3.11346e-014 -1.86858e-014
rhumerus -28.0167 -16.1688 -82.8111
rradius 18.2973
rwrist 11.7431
rhand -6.56735 -34.8286
rfingers 7.12502
rthumb 19.2869 -63.8922
lclavicle 3.11346e-014 -1.86858e-014
lhumerus -45.187 24.9629 79.1389
lradius 38.0537
lwrist -3.11326
lhand -5.78464 -12.2763
lfingers 7.12502
lthumb 20.0394 16.7103
rfemur -11.1301 -1.15404 21.7812
rtibia 31.7894
rfoot -23.0201 -6.54105
rtoes 22.3241
lfemur -9.10104 3.17867 -20.7992
ltibia 28.3776
lfoot -22.912 2.18718
ltoes -25.1576
57
root 0.238285 17.6085 -22.2421 2.97791 -1.80274 -0.397974
lowerback 5.77644 -1.45124 -2.37534
upperback -1.19155 -2.03025 1.93497
thorax -4.32275 -0.921861 3.53131
lowerneck -8.61606 -5.92213 -8.85734
upperneck 14.2509 -7.11231 2.31374
head 6.15149 -3.75836 1.59166
rclavicle -1.85118e-014 -2.38542e-015
rhumerus -27.9243 -16.3284 -82.8356
rradius 18.375
rwrist 11.8408
rhand -6.69768 -34.8602
rfingers 7.12502
rthumb 19.1616 -63.9363
lclavicle -1.85118e-014 -2.38542e-015
lhumerus -45.0496 24.983 79.1818
lradius 37.9921
lwrist -3.18255
lhand -5.93562 -12.2841
lfingers 7.12502
lthumb 19.8942 16.7177
rfemur -11.1772 -1.13384 21.699
rtibia 31.8254
rfoot -22.9988 -6.61532
rtoes 22.3323
lfemur -9.161 3.07772 -20.9042
ltibia 28.4021
lfoot -22.8851 2.25518
ltoes -24.7937
58
root 0.237636 17.6068 -22.2459 2.98845 -1.81304 -0.26713
lowerback 5.80954 -1.38901 -2.49681
upperback -1.16983 -1.95944 1.87098
thorax -4.32265 -0.884627 3.5275
lowerneck -9.10115 -5.40893 -8.23463
upperneck 15.1952 -6.40226 1.8767
head 6.45828 -3.42384 1.39743
rclavicle 5.34234e-015 1.35174e-014
rhumerus -27.9164 -16.5117 -82.8437
rradius 18.4914
rwrist 11.8637
rhand -6.6516 -34.7981
rfingers 7.12502
rthumb 19.2059 -63.8698
lclavicle 5.34234e-015 1.35174e-014
lhumerus -44.9178 24.833 79.2464
lradius 37.9457
lwrist -3.1832
lhand -6.10198 -12.319
lfingers 7.12502
lthumb 19.7343 16.6992
rfemur -11.21 -1.11008 21.5621
rtibia 31.8656
rfoot -23.0738 -6.64941
rtoes 22.4059
lfemur -9.20423 3.05575 -21.0588
ltibia 28.4175
lfoot -22.8651 2.26797
ltoes -24.4328
59
root 0.236975 17.6091 -22.2505 2.99287 -1.80896 -0.203705
lowerback 5.92053 -1.33312 -2.57003
upperback -1.16748 -1.89414 1.82933
thorax -4.38722 -0.849475 3.52333
lowerneck -9.64738 -4.8345 -7.59523
upperneck 16.3581 -5.61289 1.46962
head 6.85279 -3.05166 1.21604
rclavicle 9.34288e-015 1.19271e-014
rhumerus -27.9282 -16.4186 -82.9471
rradius 18.675
rwrist 11.626
rhand -6.49445 -34.9579
rfingers 7.12502
rthumb 19.357 -64.0145
lclavicle 9.34288e-015 1.19271e-014
lhumerus -44.828 24.6504 79.2865
lradius 37.9186
lwrist -3.19279
lhand -6.15734 -12.3963
lfingers 7.12502
lthumb 19.6811 16.6274
rfemur -11.2686 -1.07485 21.4904
rtibia 31.9034
rfoot -23.2002 -6.63976
rtoes 22.7393
lfemur -9.24311 3.01336 -21.1415
ltibia 28.4323
lfoot -22.8273 2.32704
ltoes -24.2529
60
root 0.234734 17.6121 -22.2564 2.99943 -1.78051 -0.185377
lowerback 6.09528 -1.28782 -2.62566
upperback -1.14338 -1.84142 1.82717
thorax -4.46357 -0.820523 3.55303
lowerneck -10.26 -4.2433 -7.12152
upperneck 17.459 -4.79792 1.24032
head 7.25936 -2.66241 1.12381
rclavicle 2.54693e-014 -2.78299e-015
rhumerus -27.8378 -16.287 -83.0603
rradius 18.8436
rwrist 11.3147
rhand -6.47372 -35.1013
rfingers 7.12502
rthumb 19.3769 -64.1559
lclavicle 2.54693e-014 -2.78299e-015
lhumerus -44.636 24.6499 79.3352
lradius 37.8374
lwrist -3.36096
lhand -6.13783 -12.5424
lfingers 7.12502
lthumb 19.6999 16.4794
rfemur -11.3185 -1.06029 21.4776
rtibia 31.9159
rfoot -23.205 -6.64259
rtoes 22.8994
lfemur -9.29336 2.9204 -21.1655
ltibia 28.4673
lfoot -22.7825 2.3749
ltoes -23.6875
61
root 0.23388 17.6115 -22.2633 3.01968 -1.74196 -0.203359
lowerback 6.2401 -1.23274 -2.58397
upperback -1.08939 -1.76743 1.82546
thorax -4.49632 -0.784877 3.52429
lowerneck -10.87 -3.60667 -6.68355
upperneck 18.4458 -3.92529 1.07152
head 7.63817 -2.24234 1.0691
rclavicle -3.42904e-015 -7.15625e-015
rhumerus -27.6772 -16.3401 -83.102
rradius 18.9363
rwrist 11.0964
rhand -6.52317 -35.0605
rfingers 7.12502
rthumb 19.3294 -64.1199
lclavicle -3.42904e-015 -7.15625e-015
lhumerus -44.3811 24.6524 79.4346
lradius 37.7984
lwrist -3.49868
lhand -6.01996 -12.6982
lfingers 7.12502
lthumb 19.8132 16.312
rfemur -11.3439 -1.0643 21.5116
rtibia 31.896
rfoot -23.1033 -6.67484
rtoes 22.4604
lfemur -9.37715 2.84972 -21.1497
ltibia 28.5287
lfoot -22.7596 2.40029
ltoes -23.6967
62
root 0.234217 17.611 -22.2687 3.06576 -1.71423 -0.327216
lowerback 6.30309 -1.15893 -2.39394
upperback -0.998431 -1.65498 1.82305
thorax -4.45102 -0.736065 3.40367
lowerneck -11.4602 -2.95011 -6.12628
upperneck 19.3924 -3.04177 0.860735
head 8.00653 -1.81363 0.988344
rclavicle 3.15571e-014 -1.90833e-014
rhumerus -27.4901 -16.3807 -83.1999
rradius 19.0709
rwrist 10.8432
rhand -6.51813 -34.9017
rfingers 7.12502
rthumb 19.3342 -63.9606
lclavicle 3.15571e-014 -1.90833e-014
lhumerus -44.0916 24.4734 79.6007
lradius 37.8765
lwrist -3.42908
lhand -5.82154 -12.79
lfingers 7.12502
lthumb 20.0039 16.2003
rfemur -11.3821 -1.0298 21.6621
rtibia 31.8661
rfoot -23.0443 -6.72998
rtoes 22.1242
lfemur -9.49404 2.83144 -21.0156
ltibia 28.6047
lfoot -22.7761 2.39283
ltoes -24.2784
63
root 0.234363 17.6133 -22.2728 3.15785 -1.688 -0.453856
lowerback 6.28102 -1.07475 -2.22077
upperback -0.892597 -1.52872 1.82046
thorax -4.34207 -0.681141 3.28817
lowerneck -11.8702 -2.34591 -5.63425
upperneck 20.1821 -2.2512 0.74379
head 8.30592 -1.424 0.946981
rclavicle 1.24986e-014 -2.38542e-014
rhumerus -27.3338 -16.3804 -83.3401
rradius 19.2688
rwrist 10.6195
rhand -6.54481 -34.5789
rfingers 7.12502
rthumb 19.3086 -63.6404
lclavicle 1.24986e-014 -2.38542e-014
lhumerus -43.7232 24.1983 79.8508
lradius 37.9899
lwrist -3.23726
lhand -5.7541 -12.7254
lfingers 7.12502
lthumb 20.0687 16.2582
rfemur -11.479 -1.07757 21.8059
rtibia 31.8369
rfoot -22.9844 -6.76034
rtoes 22.1561
lfemur -9.66102 2.85246 -20.8754
ltibia 28.6936
lfoot -22.7961 2.30513
ltoes -24.2983
64
root 0.234559 17.6154 -22.2781 3.26239 -1.65502 -0.444853
lowerback 6.23328 -0.979378 -2.18794
upperback -0.798775 -1.40005 1.777
thorax -4.22849 -0.621745 3.20892
lowerneck -12.0808 -1.84332 -5.17382
upperneck 20.8454 -1.60978 0.631222
head 8.53928 -1.10584 0.901086
rclavicle -7.37988e-015 5.96354e-015
rhumerus -27.2348 -16.3443 -83.4839
rradius 19.4902
rwrist 10.3639
rhand -6.59258 -34.5534
rfingers 7.12502
rthumb 19.2626 -63.6194
lclavicle -7.37988e-015 5.96354e-015
lhumerus -43.3595 23.9022 80.1128
lradius 38.1114
lwrist -3.05066
lhand -5.81619 -12.6549
lfingers 7.12502
lthumb 20.009 16.3349
rfemur -11.6067 -1.18865 21.7907
rtibia 31.8146
rfoot -22.9642 -6.69664
rtoes 22.0984
lfemur -9.84663 2.88882 -20.8928
ltibia 28.7828
lfoot -22.7972 2.27404
ltoes -24.669
